Coordinates
version=1
nRows=8
nColumns=40
inDegrees=yes

Units are S.I. units (second, meters, Newtons, ...)
If the header above contains a line with 'inDegrees', this indicates whether rotational values are in degrees (yes) or radians (no).

endheader
time	pelvis_tilt	pelvis_list	pelvis_rotation	pelvis_tx	pelvis_ty	pelvis_tz	hip_flexion_r	hip_adduction_r	hip_rotation_r	knee_angle_r	knee_angle_r_beta	ankle_angle_r	subtalar_angle_r	mtp_angle_r	hip_flexion_l	hip_adduction_l	hip_rotation_l	knee_angle_l	knee_angle_l_beta	ankle_angle_l	subtalar_angle_l	mtp_angle_l	lumbar_extension	lumbar_bending	lumbar_rotation	arm_flex_r	arm_add_r	arm_rot_r	elbow_flex_r	pro_sup_r	wrist_flex_r	wrist_dev_r	arm_flex_l	arm_add_l	arm_rot_l	elbow_flex_l	pro_sup_l	wrist_flex_l	wrist_dev_l
      4.00000000	    -29.76807032	      6.75599286	     -8.03283633	     -0.38167981	      0.88059433	     -1.06077805	      7.88880210	     -9.99609920	     11.17417815	     52.06941422	      0.90878272	     -0.44525369	      0.00000000	      0.00000000	     66.69663329	      2.11764217	     -4.60452124	     61.61820943	      1.07544063	     16.12032529	      0.00000000	      0.00000000	      5.10444727	    -10.29678893	     13.70568814	     89.97288414	     -8.08036834	     10.53955022	     55.33960891	     44.29637967	      0.00000000	      0.00000000	     89.95709724	    -31.68562936	     -2.21329612	     55.31403287	     45.20545218	      0.00000000	      0.00000000
      4.00500000	    -29.82155278	      6.79701980	     -8.04892169	     -0.38174713	      0.88014443	     -1.06071371	      7.93969638	     -9.97509348	     11.25683362	     52.06841422	      0.90876526	     -0.39691161	      0.00000000	      0.00000000	     66.80802323	      2.14063831	     -4.55827970	     61.68331144	      1.07657688	     15.94864838	      0.00000000	      0.00000000	      5.13915284	    -10.32070563	     13.64101611	     89.97296208	     -8.00676619	     10.52517722	     55.36071250	     44.32356081	      0.00000000	      0.00000000	     89.95680495	    -31.79568704	     -2.38553199	     55.41522392	     45.13239529	      0.00000000	      0.00000000
      4.01000000	    -29.76763063	      6.86687460	     -8.06309031	     -0.38165277	      0.87967062	     -1.06064720	      7.86479500	    -10.05523992	     11.20022470	     52.05546270	      0.90853922	     -0.36400136	      0.00000000	      0.00000000	     66.79678316	      2.16079035	     -4.66418953	     61.80744972	      1.07874350	     16.31292022	      0.00000000	      0.00000000	      5.09168595	    -10.41101756	     13.70681892	     89.97293178	     -8.12138637	     10.53878124	     55.46540410	     44.35124096	      0.00000000	      0.00000000	     89.95704379	    -31.77354559	     -2.20400000	     55.33718494	     45.07827707	      0.00000000	      0.00000000
      4.01500000	    -29.90349147	      6.89972363	     -8.00266088	     -0.38184611	      0.87909175	     -1.06078277	      7.96329213	    -10.02005920	     11.31548957	     52.01273176	      0.90779342	     -0.31864421	      0.00000000	      0.00000000	     67.05543962	      2.27132801	     -4.51304107	     61.95126789	      1.08125360	     15.93692192	      0.00000000	      0.00000000	      5.17924731	    -10.45432794	     13.51826045	     89.97289452	     -8.04312169	     10.42750852	     55.61045208	     44.36919832	      0.00000000	      0.00000000	     89.95658534	    -31.86991829	     -2.49525076	     55.68875688	     45.03322913	      0.00000000	      0.00000000
      4.02000000	    -29.77938058	      6.92280495	     -8.09892902	     -0.38155829	      0.87868615	     -1.06050594	      7.84352173	    -10.04457420	     11.23545641	     52.05641005	      0.90855575	     -0.24885077	      0.00000000	      0.00000000	     66.94352946	      2.17018382	     -4.68183149	     62.07731418	      1.08345352	     16.33596543	      0.00000000	      0.00000000	      5.09286740	    -10.46912301	     13.63345996	     89.97298600	     -8.08285985	     10.52212803	     55.50741768	     44.39072067	      0.00000000	      0.00000000	     89.95700921	    -31.86225160	     -2.41268684	     55.29756460	     44.96985606	      0.00000000	      0.00000000
      4.02500000	    -29.91391676	      6.96777068	     -8.08664585	     -0.38180415	      0.87814741	     -1.06053364	      7.95225613	     -9.99910530	     11.42581568	     51.99936783	      0.90756018	     -0.21638037	      0.00000000	      0.00000000	     67.18917567	      2.25697055	     -4.52409717	     62.17814109	      1.08521328	     16.06763116	      0.00000000	      0.00000000	      5.17783630	    -10.51897260	     13.50040650	     89.97288649	     -7.96511377	     10.40487078	     55.65439259	     44.39677837	      0.00000000	      0.00000000	     89.95654406	    -31.96607645	     -2.64519522	     55.70933225	     44.93288523	      0.00000000	      0.00000000
      4.03000000	    -29.73616671	      6.96549844	     -8.22139946	     -0.38154872	      0.87784864	     -1.06024592	      7.79280313	    -10.03019505	     11.33095611	     52.07109700	      0.90881209	     -0.16687977	      0.00000000	      0.00000000	     67.00359709	      2.10527108	     -4.72072564	     62.28999368	      1.08716548	     16.54906229	      0.00000000	      0.00000000	      5.02944392	    -10.50217936	     13.68765768	     89.97305611	     -8.05090461	     10.48991635	     55.58726403	     44.40085329	      0.00000000	      0.00000000	     89.95692907	    -31.98079908	     -2.41589716	     55.28453602	     44.88287423	      0.00000000	      0.00000000
      4.03500000	    -29.76563928	      7.01516521	     -8.22476029	     -0.38159935	      0.87736485	     -1.06016691	      7.82765074	    -10.04607156	     11.34413797	     52.11235835	      0.90953223	     -0.03884561	      0.00000000	      0.00000000	     67.08684201	      2.11968259	     -4.76009599	     62.38134691	      1.08875990	     16.53799175	      0.00000000	      0.00000000	      5.04758071	    -10.56664280	     13.60339530	     89.97310478	     -7.98418013	     10.48554724	     55.61048552	     44.40344623	      0.00000000	      0.00000000	     89.95686176	    -32.00831727	     -2.56780578	     55.32953759	     44.84667173	      0.00000000	      0.00000000
